<svg xmlns="http://www.w3.org/2000/svg" xmlns:xlink="http://www.w3.org/1999/xlink" contentStyleType="text/css" data-diagram-type="ACTIVITY" height="1412px" preserveAspectRatio="none" style="width:1164px;height:1412px;background:#1B2838;" version="1.1" viewBox="0 0 1164 1412" width="1164px" zoomAndPan="magnify"><title>**Spectre -- User Product Flow**</title><defs/><g><rect fill="#1B2838" height="1412" style="stroke:none;stroke-width:1;" width="1164" x="0" y="0"/><g class="title" data-source-line="42"><text fill="#D4E4F7" font-family="sans-serif" font-size="14" font-weight="bold" lengthAdjust="spacing" textLength="192.1445" x="484.7157" y="34.5332">Spectre -- User Product Flow</text></g><rect fill="none" height="17.6094" style="stroke:none;stroke-width:1;" width="1131.5759" x="15" y="50.1855"/><rect fill="#15202E" height="1350.4219" style="stroke:#15202E;stroke-width:1;" width="343.4736" x="15" y="50.1855"/><ellipse cx="103.0352" cy="82.7949" fill="#5B9BD5" rx="10" ry="10" style="stroke:#222222;stroke-width:1;"/><path d="M179.7314,102.7949 L179.7314,126.4355 L159.7314,130.4355 L179.7314,134.4355 L179.7314,158.0762 A0,0 0 0 0 179.7314,158.0762 L317.4678,158.0762 A0,0 0 0 0 317.4678,158.0762 L317.4678,112.7949 L307.4678,102.7949 L179.7314,102.7949 A0,0 0 0 0 179.7314,102.7949" fill="#1E3450" style="stroke:#4A7FAD;stroke-width:0.5;"/><path d="M307.4678,102.7949 L307.4678,112.7949 L317.4678,112.7949 L307.4678,102.7949" fill="#1E3450" style="stroke:#4A7FAD;stroke-width:0.5;"/><text fill="#B0C4DE" font-family="sans-serif" font-size="12" lengthAdjust="spacing" textLength="106.0547" x="185.7314" y="120.252">Create account with</text><text fill="#B0C4DE" font-family="sans-serif" font-size="12" lengthAdjust="spacing" textLength="112.7168" x="185.7314" y="135.3457">Email and Password,</text><text fill="#B0C4DE" font-family="sans-serif" font-size="12" lengthAdjust="spacing" textLength="116.7363" x="185.7314" y="150.4395">or use Google Sign-In</text><rect fill="#243B55" height="35.0938" rx="12.5" ry="12.5" style="stroke:#4A7FAD;stroke-width:0.5;" width="113.3926" x="46.3389" y="112.8887"/><text fill="#D4E4F7" font-family="sans-serif" font-size="12" lengthAdjust="spacing" textLength="93.3926" x="56.3389" y="135.3457">Sign Up or Log In</text><rect fill="#243B55" height="35.0938" rx="12.5" ry="12.5" style="stroke:#4A7FAD;stroke-width:0.5;" width="111.3945" x="47.3379" y="178.0762"/><text fill="#D4E4F7" font-family="sans-serif" font-size="12" lengthAdjust="spacing" textLength="91.3945" x="57.3379" y="200.5332">Open Dashboard</text><path d="M195.7334,223.1699 L195.7334,246.8105 L175.7334,250.8105 L195.7334,254.8105 L195.7334,278.4512 A0,0 0 0 0 195.7334,278.4512 L353.4736,278.4512 A0,0 0 0 0 353.4736,278.4512 L353.4736,233.1699 L343.4736,223.1699 L195.7334,223.1699 A0,0 0 0 0 195.7334,223.1699" fill="#1E3450" style="stroke:#4A7FAD;stroke-width:0.5;"/><path d="M343.4736,223.1699 L343.4736,233.1699 L353.4736,233.1699 L343.4736,223.1699" fill="#1E3450" style="stroke:#4A7FAD;stroke-width:0.5;"/><text fill="#B0C4DE" font-family="sans-serif" font-size="12" lengthAdjust="spacing" textLength="121.4004" x="201.7334" y="240.627">Give your app a name.</text><text fill="#B0C4DE" font-family="sans-serif" font-size="12" lengthAdjust="spacing" textLength="136.7402" x="201.7334" y="255.7207">Optionally set a Webhook</text><text fill="#B0C4DE" font-family="sans-serif" font-size="12" lengthAdjust="spacing" textLength="111.3809" x="201.7334" y="270.8145">URL for notifications.</text><rect fill="#243B55" height="35.0938" rx="12.5" ry="12.5" style="stroke:#4A7FAD;stroke-width:0.5;" width="145.3965" x="30.3369" y="233.2637"/><text fill="#D4E4F7" font-family="sans-serif" font-size="12" lengthAdjust="spacing" textLength="125.3965" x="40.3369" y="255.7207">Create New Application</text><path d="M181.3955,288.4512 L181.3955,312.0918 L161.3955,316.0918 L181.3955,320.0918 L181.3955,343.7324 A0,0 0 0 0 181.3955,343.7324 L297.124,343.7324 A0,0 0 0 0 297.124,343.7324 L297.124,298.4512 L287.124,288.4512 L181.3955,288.4512 A0,0 0 0 0 181.3955,288.4512" fill="#1E3450" style="stroke:#4A7FAD;stroke-width:0.5;"/><path d="M287.124,288.4512 L287.124,298.4512 L297.124,298.4512 L287.124,288.4512" fill="#1E3450" style="stroke:#4A7FAD;stroke-width:0.5;"/><text fill="#B0C4DE" font-family="sans-serif" font-size="12" lengthAdjust="spacing" textLength="94.7285" x="187.3955" y="305.9082">Shown only once.</text><text fill="#B0C4DE" font-family="sans-serif" font-size="12" lengthAdjust="spacing" textLength="89.3848" x="187.3955" y="321.002">Copy and save it</text><text fill="#B0C4DE" font-family="sans-serif" font-size="12" lengthAdjust="spacing" textLength="94.0547" x="187.3955" y="336.0957">in a secure place.</text><rect fill="#243B55" height="35.0938" rx="12.5" ry="12.5" style="stroke:#4A7FAD;stroke-width:0.5;" width="116.7207" x="44.6748" y="298.5449"/><text fill="#D4E4F7" font-family="sans-serif" font-size="12" lengthAdjust="spacing" textLength="96.7207" x="54.6748" y="321.002">Generate API Key</text><path d="M195.0654,353.7324 L195.0654,384.9199 L175.0654,388.9199 L195.0654,392.9199 L195.0654,424.1074 A0,0 0 0 0 195.0654,424.1074 L349.4658,424.1074 A0,0 0 0 0 349.4658,424.1074 L349.4658,363.7324 L339.4658,353.7324 L195.0654,353.7324 A0,0 0 0 0 195.0654,353.7324" fill="#1E3450" style="stroke:#4A7FAD;stroke-width:0.5;"/><path d="M339.4658,353.7324 L339.4658,363.7324 L349.4658,363.7324 L339.4658,353.7324" fill="#1E3450" style="stroke:#4A7FAD;stroke-width:0.5;"/><text fill="#B0C4DE" font-family="sans-serif" font-size="12" lengthAdjust="spacing" textLength="133.4004" x="201.0654" y="371.1895">Install the NPM package,</text><text fill="#B0C4DE" font-family="sans-serif" font-size="12" lengthAdjust="spacing" textLength="122.0859" x="201.0654" y="386.2832">then add the face-scan</text><text fill="#B0C4DE" font-family="sans-serif" font-size="12" lengthAdjust="spacing" textLength="110.7246" x="201.0654" y="401.377">component with your</text><text fill="#B0C4DE" font-family="sans-serif" font-size="12" lengthAdjust="spacing" textLength="46.6875" x="201.0654" y="416.4707">API Key.</text><rect fill="#243B55" height="50.1875" rx="12.5" ry="12.5" style="stroke:#4A7FAD;stroke-width:0.5;" width="144.0605" x="31.0049" y="363.8262"/><text fill="#D4E4F7" font-family="sans-serif" font-size="12" lengthAdjust="spacing" textLength="94.0488" x="41.0049" y="386.2832">Add Spectre SDK</text><text fill="#D4E4F7" font-family="sans-serif" font-size="12" lengthAdjust="spacing" textLength="124.0605" x="41.0049" y="401.377">to Your Website or App</text><rect fill="#243B55" height="35.0938" rx="12.5" ry="12.5" style="stroke:#4A7FAD;stroke-width:0.5;" width="164.0703" x="21" y="1268.4199"/><text fill="#D4E4F7" font-family="sans-serif" font-size="12" lengthAdjust="spacing" textLength="144.0703" x="31" y="1290.877">View Results in Dashboard</text><rect fill="#243B55" height="35.0938" rx="12.5" ry="12.5" style="stroke:#4A7FAD;stroke-width:0.5;" width="145.3848" x="30.3428" y="1323.5137"/><text fill="#D4E4F7" font-family="sans-serif" font-size="12" lengthAdjust="spacing" textLength="125.3848" x="40.3428" y="1345.9707">Review Session Details</text><ellipse cx="103.0352" cy="1389.6074" fill="none" rx="11" ry="11" style="stroke:#222222;stroke-width:1;"/><ellipse cx="103.0352" cy="1389.6074" fill="#222222" rx="6" ry="6" style="stroke:#222222;stroke-width:1;"/><line style="stroke:#3E6B9B;stroke-width:1.5;" x1="15" x2="15" y1="50.1855" y2="1400.6074"/><rect fill="#15202E" height="1350.4219" style="stroke:#15202E;stroke-width:1;" width="186.082" x="358.4736" y="50.1855"/><rect fill="#243B55" height="35.0938" rx="12.5" ry="12.5" style="stroke:#4A7FAD;stroke-width:0.5;" width="146.0762" x="379.4766" y="444.1074"/><text fill="#D4E4F7" font-family="sans-serif" font-size="12" lengthAdjust="spacing" textLength="126.0762" x="389.4766" y="466.5645">Opens Your Application</text><rect fill="#243B55" height="35.0938" rx="12.5" ry="12.5" style="stroke:#4A7FAD;stroke-width:0.5;" width="144.0488" x="380.4902" y="499.2012"/><text fill="#D4E4F7" font-family="sans-serif" font-size="12" lengthAdjust="spacing" textLength="124.0488" x="390.4902" y="521.6582">Starts Face Verification</text><rect fill="#243B55" height="35.0938" rx="12.5" ry="12.5" style="stroke:#4A7FAD;stroke-width:0.5;" width="142.7012" x="381.1641" y="554.2949"/><text fill="#D4E4F7" font-family="sans-serif" font-size="12" lengthAdjust="spacing" textLength="122.7012" x="391.1641" y="576.752">Allows Camera Access</text><rect fill="#243B55" height="35.0938" rx="12.5" ry="12.5" style="stroke:#4A7FAD;stroke-width:0.5;" width="149.3809" x="377.8242" y="609.3887"/><text fill="#D4E4F7" font-family="sans-serif" font-size="12" lengthAdjust="spacing" textLength="129.3809" x="387.8242" y="631.8457">Positions Face in Frame</text><rect fill="#243B55" height="35.0938" rx="12.5" ry="12.5" style="stroke:#4A7FAD;stroke-width:0.5;" width="176.082" x="364.4736" y="664.4824"/><text fill="#D4E4F7" font-family="sans-serif" font-size="12" lengthAdjust="spacing" textLength="156.082" x="374.4736" y="686.9395">Follows Head Rotation Guide</text><line style="stroke:#3E6B9B;stroke-width:1.5;" x1="358.4736" x2="358.4736" y1="50.1855" y2="1400.6074"/><rect fill="#15202E" height="1350.4219" style="stroke:#15202E;stroke-width:1;" width="601.0754" x="544.5557" y="50.1855"/><rect fill="#243B55" height="35.0938" rx="12.5" ry="12.5" style="stroke:#4A7FAD;stroke-width:0.5;" width="104.0586" x="836.9836" y="719.5762"/><text fill="#D4E4F7" font-family="sans-serif" font-size="12" lengthAdjust="spacing" textLength="84.0586" x="846.9836" y="742.0332">Photo Captured</text><rect fill="#243B55" height="35.0938" rx="12.5" ry="12.5" style="stroke:#4A7FAD;stroke-width:0.5;" width="140.0645" x="818.9807" y="774.6699"/><text fill="#D4E4F7" font-family="sans-serif" font-size="12" lengthAdjust="spacing" textLength="120.0645" x="828.9807" y="797.127">Anti-Spoofing Analysis</text><polygon fill="#2C4A6E" points="855.688,829.7637,922.3379,829.7637,934.3379,841.7637,922.3379,853.7637,855.688,853.7637,843.688,841.7637,855.688,829.7637" style="stroke:#5B9BD5;stroke-width:0.5;"/><text fill="#D4E4F7" font-family="sans-serif" font-size="11" lengthAdjust="spacing" textLength="66.6499" x="855.688" y="846.2646">Real Person?</text><text fill="#8BAFC4" font-family="sans-serif" font-size="10" lengthAdjust="spacing" textLength="17.2314" x="826.4565" y="839.5664">Yes</text><text fill="#8BAFC4" font-family="sans-serif" font-size="10" lengthAdjust="spacing" textLength="12.7832" x="934.3379" y="839.5664">No</text><polygon fill="#2C4A6E" points="681.2727,863.7637,736.2727,863.7637,748.2727,875.7637,736.2727,887.7637,681.2727,887.7637,669.2727,875.7637,681.2727,863.7637" style="stroke:#5B9BD5;stroke-width:0.5;"/><text fill="#D4E4F7" font-family="sans-serif" font-size="11" lengthAdjust="spacing" textLength="55" x="681.2727" y="880.2646">First Time?</text><text fill="#8BAFC4" font-family="sans-serif" font-size="10" lengthAdjust="spacing" textLength="17.2314" x="652.0413" y="873.5664">Yes</text><text fill="#8BAFC4" font-family="sans-serif" font-size="10" lengthAdjust="spacing" textLength="12.7832" x="748.2727" y="873.5664">No</text><rect fill="#243B55" height="35.0938" rx="12.5" ry="12.5" style="stroke:#4A7FAD;stroke-width:0.5;" width="108.043" x="550.5557" y="897.7637"/><text fill="#D4E4F7" font-family="sans-serif" font-size="12" lengthAdjust="spacing" textLength="88.043" x="560.5557" y="920.2207">Face Registered</text><rect fill="#243B55" height="35.0938" rx="12.5" ry="12.5" style="stroke:#4A7FAD;stroke-width:0.5;" width="162.7285" x="731.604" y="897.7637"/><text fill="#D4E4F7" font-family="sans-serif" font-size="12" lengthAdjust="spacing" textLength="142.7285" x="741.604" y="920.2207">Compare with Stored Face</text><polygon fill="#2C4A6E" points="778.4268,967.8574,847.5098,967.8574,859.5098,979.8574,847.5098,991.8574,778.4268,991.8574,766.4268,979.8574,778.4268,967.8574" style="stroke:#5B9BD5;stroke-width:0.5;"/><text fill="#D4E4F7" font-family="sans-serif" font-size="11" lengthAdjust="spacing" textLength="69.083" x="778.4268" y="984.3584">Faces Match?</text><text fill="#8BAFC4" font-family="sans-serif" font-size="10" lengthAdjust="spacing" textLength="17.2314" x="749.1953" y="977.6602">Yes</text><text fill="#8BAFC4" font-family="sans-serif" font-size="10" lengthAdjust="spacing" textLength="12.7832" x="859.5098" y="977.6602">No</text><rect fill="#243B55" height="35.0938" rx="12.5" ry="12.5" style="stroke:#4A7FAD;stroke-width:0.5;" width="117.377" x="688.5986" y="1001.8574"/><text fill="#D4E4F7" font-family="sans-serif" font-size="12" lengthAdjust="spacing" textLength="97.377" x="698.5986" y="1024.3145">Identity Confirmed</text><rect fill="#243B55" height="50.1875" rx="12.5" ry="12.5" style="stroke:#4A7FAD;stroke-width:0.5;" width="105.3477" x="825.9756" y="1001.8574"/><text fill="#D4E4F7" font-family="sans-serif" font-size="12" lengthAdjust="spacing" textLength="80.0391" x="835.9756" y="1024.3145">Access Denied</text><text fill="#D4E4F7" font-family="sans-serif" font-size="12" lengthAdjust="spacing" textLength="85.3477" x="835.9756" y="1039.4082">(face mismatch)</text><ellipse cx="878.6494" cy="1083.0449" fill="none" rx="11" ry="11" style="stroke:#222222;stroke-width:1;"/><ellipse cx="878.6494" cy="1083.0449" fill="#222222" rx="6" ry="6" style="stroke:#222222;stroke-width:1;"/><polygon fill="#2C4A6E" points="708.7727,1104.0449,720.7727,1116.0449,708.7727,1128.0449,696.7727,1116.0449,708.7727,1104.0449" style="stroke:#5B9BD5;stroke-width:0.5;"/><rect fill="#243B55" height="35.0938" rx="12.5" ry="12.5" style="stroke:#4A7FAD;stroke-width:0.5;" width="148.7422" x="634.4016" y="1148.0449"/><text fill="#D4E4F7" font-family="sans-serif" font-size="12" lengthAdjust="spacing" textLength="128.7422" x="644.4016" y="1170.502">Result Sent to Your App</text><path d="M818.4807,1193.1387 L818.4807,1216.7793 L798.4807,1220.7793 L818.4807,1224.7793 L818.4807,1248.4199 A0,0 0 0 0 818.4807,1248.4199 L966.8752,1248.4199 A0,0 0 0 0 966.8752,1248.4199 L966.8752,1203.1387 L956.8752,1193.1387 L818.4807,1193.1387 A0,0 0 0 0 818.4807,1193.1387" fill="#1E3450" style="stroke:#4A7FAD;stroke-width:0.5;"/><path d="M956.8752,1193.1387 L956.8752,1203.1387 L966.8752,1203.1387 L956.8752,1193.1387" fill="#1E3450" style="stroke:#4A7FAD;stroke-width:0.5;"/><text fill="#B0C4DE" font-family="sans-serif" font-size="12" lengthAdjust="spacing" textLength="98.0684" x="824.4807" y="1210.5957">Signed notification</text><text fill="#B0C4DE" font-family="sans-serif" font-size="12" lengthAdjust="spacing" textLength="98.0391" x="824.4807" y="1225.6895">with session result</text><text fill="#B0C4DE" font-family="sans-serif" font-size="12" lengthAdjust="spacing" textLength="127.3945" x="824.4807" y="1240.7832">(if Webhook configured)</text><rect fill="#243B55" height="35.0938" rx="12.5" ry="12.5" style="stroke:#4A7FAD;stroke-width:0.5;" width="179.416" x="619.0647" y="1203.2324"/><text fill="#D4E4F7" font-family="sans-serif" font-size="12" lengthAdjust="spacing" textLength="159.416" x="629.0647" y="1225.6895">Webhook Sent to Your Server</text><rect fill="#243B55" height="35.0938" rx="12.5" ry="12.5" style="stroke:#4A7FAD;stroke-width:0.5;" width="164.7441" x="976.8811" y="863.7637"/><text fill="#D4E4F7" font-family="sans-serif" font-size="12" lengthAdjust="spacing" textLength="144.7441" x="986.8811" y="886.2207">Spoof Detected -- Rejected</text><rect fill="#243B55" height="35.0938" rx="12.5" ry="12.5" style="stroke:#4A7FAD;stroke-width:0.5;" width="164.7559" x="976.8752" y="933.8574"/><text fill="#D4E4F7" font-family="sans-serif" font-size="12" lengthAdjust="spacing" textLength="144.7559" x="986.8752" y="956.3145">Rejection Sent to Your App</text><ellipse cx="1059.2532" cy="1014.9512" fill="none" rx="11" ry="11" style="stroke:#222222;stroke-width:1;"/><ellipse cx="1059.2532" cy="1014.9512" fill="#222222" rx="6" ry="6" style="stroke:#222222;stroke-width:1;"/><line style="stroke:#3E6B9B;stroke-width:1.5;" x1="544.5557" x2="544.5557" y1="50.1855" y2="1400.6074"/><line style="stroke:#3E6B9B;stroke-width:1.5;" x1="1145.6311" x2="1145.6311" y1="50.1855" y2="1400.6074"/><line style="stroke:#5B9BD5;stroke-width:1;" x1="103.0352" x2="103.0352" y1="92.7949" y2="112.8887"/><polygon fill="#5B9BD5" points="99.0352,102.8887,103.0352,112.8887,107.0352,102.8887,103.0352,106.8887" style="stroke:#5B9BD5;stroke-width:1;"/><line style="stroke:#5B9BD5;stroke-width:1;" x1="103.0352" x2="103.0352" y1="147.9824" y2="178.0762"/><polygon fill="#5B9BD5" points="99.0352,168.0762,103.0352,178.0762,107.0352,168.0762,103.0352,172.0762" style="stroke:#5B9BD5;stroke-width:1;"/><line style="stroke:#5B9BD5;stroke-width:1;" x1="103.0352" x2="103.0352" y1="213.1699" y2="233.2637"/><polygon fill="#5B9BD5" points="99.0352,223.2637,103.0352,233.2637,107.0352,223.2637,103.0352,227.2637" style="stroke:#5B9BD5;stroke-width:1;"/><line style="stroke:#5B9BD5;stroke-width:1;" x1="103.0352" x2="103.0352" y1="268.3574" y2="298.5449"/><polygon fill="#5B9BD5" points="99.0352,288.5449,103.0352,298.5449,107.0352,288.5449,103.0352,292.5449" style="stroke:#5B9BD5;stroke-width:1;"/><line style="stroke:#5B9BD5;stroke-width:1;" x1="103.0352" x2="103.0352" y1="333.6387" y2="363.8262"/><polygon fill="#5B9BD5" points="99.0352,353.8262,103.0352,363.8262,107.0352,353.8262,103.0352,357.8262" style="stroke:#5B9BD5;stroke-width:1;"/><line style="stroke:#5B9BD5;stroke-width:1;" x1="103.0352" x2="103.0352" y1="1303.5137" y2="1323.5137"/><polygon fill="#5B9BD5" points="99.0352,1313.5137,103.0352,1323.5137,107.0352,1313.5137,103.0352,1317.5137" style="stroke:#5B9BD5;stroke-width:1;"/><line style="stroke:#5B9BD5;stroke-width:1;" x1="103.0352" x2="103.0352" y1="1358.6074" y2="1378.6074"/><polygon fill="#5B9BD5" points="99.0352,1368.6074,103.0352,1378.6074,107.0352,1368.6074,103.0352,1372.6074" style="stroke:#5B9BD5;stroke-width:1;"/><line style="stroke:#5B9BD5;stroke-width:1;" x1="452.5146" x2="452.5146" y1="479.2012" y2="499.2012"/><polygon fill="#5B9BD5" points="448.5146,489.2012,452.5146,499.2012,456.5146,489.2012,452.5146,493.2012" style="stroke:#5B9BD5;stroke-width:1;"/><line style="stroke:#5B9BD5;stroke-width:1;" x1="452.5146" x2="452.5146" y1="534.2949" y2="554.2949"/><polygon fill="#5B9BD5" points="448.5146,544.2949,452.5146,554.2949,456.5146,544.2949,452.5146,548.2949" style="stroke:#5B9BD5;stroke-width:1;"/><line style="stroke:#5B9BD5;stroke-width:1;" x1="452.5146" x2="452.5146" y1="589.3887" y2="609.3887"/><polygon fill="#5B9BD5" points="448.5146,599.3887,452.5146,609.3887,456.5146,599.3887,452.5146,603.3887" style="stroke:#5B9BD5;stroke-width:1;"/><line style="stroke:#5B9BD5;stroke-width:1;" x1="452.5146" x2="452.5146" y1="644.4824" y2="664.4824"/><polygon fill="#5B9BD5" points="448.5146,654.4824,452.5146,664.4824,456.5146,654.4824,452.5146,658.4824" style="stroke:#5B9BD5;stroke-width:1;"/><line style="stroke:#5B9BD5;stroke-width:1;" x1="889.0129" x2="889.0129" y1="754.6699" y2="774.6699"/><polygon fill="#5B9BD5" points="885.0129,764.6699,889.0129,774.6699,893.0129,764.6699,889.0129,768.6699" style="stroke:#5B9BD5;stroke-width:1;"/><line style="stroke:#5B9BD5;stroke-width:1;" x1="878.6494" x2="878.6494" y1="1052.0449" y2="1072.0449"/><polygon fill="#5B9BD5" points="874.6494,1062.0449,878.6494,1072.0449,882.6494,1062.0449,878.6494,1066.0449" style="stroke:#5B9BD5;stroke-width:1;"/><line style="stroke:#5B9BD5;stroke-width:1;" x1="766.4268" x2="747.2871" y1="979.8574" y2="979.8574"/><line style="stroke:#5B9BD5;stroke-width:1;" x1="747.2871" x2="747.2871" y1="979.8574" y2="1001.8574"/><polygon fill="#5B9BD5" points="743.2871,991.8574,747.2871,1001.8574,751.2871,991.8574,747.2871,995.8574" style="stroke:#5B9BD5;stroke-width:1;"/><line style="stroke:#5B9BD5;stroke-width:1;" x1="859.5098" x2="878.6494" y1="979.8574" y2="979.8574"/><line style="stroke:#5B9BD5;stroke-width:1;" x1="878.6494" x2="878.6494" y1="979.8574" y2="1001.8574"/><polygon fill="#5B9BD5" points="874.6494,991.8574,878.6494,1001.8574,882.6494,991.8574,878.6494,995.8574" style="stroke:#5B9BD5;stroke-width:1;"/><line style="stroke:#5B9BD5;stroke-width:1;" x1="747.2871" x2="747.2871" y1="1036.9512" y2="1116.0449"/><line style="stroke:#5B9BD5;stroke-width:1;" x1="747.2871" x2="720.7727" y1="1116.0449" y2="1116.0449"/><polygon fill="#5B9BD5" points="730.7727,1112.0449,720.7727,1116.0449,730.7727,1120.0449,726.7727,1116.0449" style="stroke:#5B9BD5;stroke-width:1;"/><line style="stroke:#5B9BD5;stroke-width:1;" x1="812.9683" x2="812.9683" y1="932.8574" y2="967.8574"/><polygon fill="#5B9BD5" points="808.9683,957.8574,812.9683,967.8574,816.9683,957.8574,812.9683,961.8574" style="stroke:#5B9BD5;stroke-width:1;"/><line style="stroke:#5B9BD5;stroke-width:1;" x1="669.2727" x2="604.5771" y1="875.7637" y2="875.7637"/><line style="stroke:#5B9BD5;stroke-width:1;" x1="604.5771" x2="604.5771" y1="875.7637" y2="897.7637"/><polygon fill="#5B9BD5" points="600.5771,887.7637,604.5771,897.7637,608.5771,887.7637,604.5771,891.7637" style="stroke:#5B9BD5;stroke-width:1;"/><line style="stroke:#5B9BD5;stroke-width:1;" x1="748.2727" x2="812.9683" y1="875.7637" y2="875.7637"/><line style="stroke:#5B9BD5;stroke-width:1;" x1="812.9683" x2="812.9683" y1="875.7637" y2="897.7637"/><polygon fill="#5B9BD5" points="808.9683,887.7637,812.9683,897.7637,816.9683,887.7637,812.9683,891.7637" style="stroke:#5B9BD5;stroke-width:1;"/><line style="stroke:#5B9BD5;stroke-width:1;" x1="604.5771" x2="604.5771" y1="932.8574" y2="1116.0449"/><line style="stroke:#5B9BD5;stroke-width:1;" x1="604.5771" x2="696.7727" y1="1116.0449" y2="1116.0449"/><polygon fill="#5B9BD5" points="686.7727,1112.0449,696.7727,1116.0449,686.7727,1120.0449,690.7727,1116.0449" style="stroke:#5B9BD5;stroke-width:1;"/><line style="stroke:#5B9BD5;stroke-width:1;" x1="708.7727" x2="708.7727" y1="1128.0449" y2="1148.0449"/><polygon fill="#5B9BD5" points="704.7727,1138.0449,708.7727,1148.0449,712.7727,1138.0449,708.7727,1142.0449" style="stroke:#5B9BD5;stroke-width:1;"/><line style="stroke:#5B9BD5;stroke-width:1;" x1="708.7727" x2="708.7727" y1="1183.1387" y2="1203.2324"/><polygon fill="#5B9BD5" points="704.7727,1193.2324,708.7727,1203.2324,712.7727,1193.2324,708.7727,1197.2324" style="stroke:#5B9BD5;stroke-width:1;"/><line style="stroke:#5B9BD5;stroke-width:1;" x1="1059.2532" x2="1059.2532" y1="898.8574" y2="933.8574"/><polygon fill="#5B9BD5" points="1055.2532,923.8574,1059.2532,933.8574,1063.2532,923.8574,1059.2532,927.8574" style="stroke:#5B9BD5;stroke-width:1;"/><line style="stroke:#5B9BD5;stroke-width:1;" x1="1059.2532" x2="1059.2532" y1="968.9512" y2="1003.9512"/><polygon fill="#5B9BD5" points="1055.2532,993.9512,1059.2532,1003.9512,1063.2532,993.9512,1059.2532,997.9512" style="stroke:#5B9BD5;stroke-width:1;"/><line style="stroke:#5B9BD5;stroke-width:1;" x1="843.688" x2="708.7727" y1="841.7637" y2="841.7637"/><line style="stroke:#5B9BD5;stroke-width:1;" x1="708.7727" x2="708.7727" y1="841.7637" y2="863.7637"/><polygon fill="#5B9BD5" points="704.7727,853.7637,708.7727,863.7637,712.7727,853.7637,708.7727,857.7637" style="stroke:#5B9BD5;stroke-width:1;"/><line style="stroke:#5B9BD5;stroke-width:1;" x1="934.3379" x2="1059.2532" y1="841.7637" y2="841.7637"/><line style="stroke:#5B9BD5;stroke-width:1;" x1="1059.2532" x2="1059.2532" y1="841.7637" y2="863.7637"/><polygon fill="#5B9BD5" points="1055.2532,853.7637,1059.2532,863.7637,1063.2532,853.7637,1059.2532,857.7637" style="stroke:#5B9BD5;stroke-width:1;"/><line style="stroke:#5B9BD5;stroke-width:1;" x1="708.7727" x2="708.7727" y1="1238.3262" y2="1253.4199"/><line style="stroke:#5B9BD5;stroke-width:1;" x1="708.7727" x2="103.0352" y1="1253.4199" y2="1253.4199"/><line style="stroke:#5B9BD5;stroke-width:1;" x1="103.0352" x2="103.0352" y1="1253.4199" y2="1268.4199"/><polygon fill="#5B9BD5" points="99.0352,1258.4199,103.0352,1268.4199,107.0352,1258.4199,103.0352,1262.4199" style="stroke:#5B9BD5;stroke-width:1;"/><line style="stroke:#5B9BD5;stroke-width:1;" x1="889.0129" x2="889.0129" y1="809.7637" y2="829.7637"/><polygon fill="#5B9BD5" points="885.0129,819.7637,889.0129,829.7637,893.0129,819.7637,889.0129,823.7637" style="stroke:#5B9BD5;stroke-width:1;"/><line style="stroke:#5B9BD5;stroke-width:1;" x1="103.0352" x2="103.0352" y1="414.0137" y2="429.1074"/><line style="stroke:#5B9BD5;stroke-width:1;" x1="103.0352" x2="452.5146" y1="429.1074" y2="429.1074"/><line style="stroke:#5B9BD5;stroke-width:1;" x1="452.5146" x2="452.5146" y1="429.1074" y2="444.1074"/><polygon fill="#5B9BD5" points="448.5146,434.1074,452.5146,444.1074,456.5146,434.1074,452.5146,438.1074" style="stroke:#5B9BD5;stroke-width:1;"/><line style="stroke:#5B9BD5;stroke-width:1;" x1="452.5146" x2="452.5146" y1="699.5762" y2="704.5762"/><line style="stroke:#5B9BD5;stroke-width:1;" x1="452.5146" x2="889.0129" y1="704.5762" y2="704.5762"/><line style="stroke:#5B9BD5;stroke-width:1;" x1="889.0129" x2="889.0129" y1="704.5762" y2="719.5762"/><polygon fill="#5B9BD5" points="885.0129,709.5762,889.0129,719.5762,893.0129,709.5762,889.0129,713.5762" style="stroke:#5B9BD5;stroke-width:1;"/><text fill="#7EB8E0" font-family="sans-serif" font-size="14" font-weight="bold" lengthAdjust="spacing" textLength="26.4414" x="173.5161" y="64.7188">You</text><text fill="#7EB8E0" font-family="sans-serif" font-size="14" font-weight="bold" lengthAdjust="spacing" textLength="97.2412" x="402.894" y="64.7188">Your End User</text><text fill="#7EB8E0" font-family="sans-serif" font-size="14" font-weight="bold" lengthAdjust="spacing" textLength="51.3584" x="819.4142" y="64.7188">Spectre</text><!--SRC=[fLRRRjj647tdLmoGXzX6bTgo5BioYeAwEMeIHn3Z50RoiYP7qjRaBh6xjA127z-p96LGig8MY5yixXpEENFP6Rwbtt_YBtXBKSwnCqmRkhTiQ6fqKiIEngbUmVgdBepYDSsDpYYI2qNtEJbDOn4pVMCZvp8MJcf5CxP5wl1AM2IILSmzkjEgvJXUAc1I-fNwXPMAhIsPBA0_9HtljrhKJmlEZLIE8hTE6KU1VP8g5qPaz2ZYfuNHXKe6EjM6tbpqszUNrms4NOf4hwHQq5oabXkMXES20OsrSdSYOug4if4F-32c9XXsHftnrM589FzXkcW73MiOE_aitRg_BxJTkUntkuUGsYHiQbGdl1g7mmEeOugQcAsaGugs9Dt-R_rXzv3geHIPLibhyODE-7vqv8Lc3BNx7uB_JoWDQ1NHnOvSO_JgXspUsE2uxeVZGUSGeF9ytlHyfns_YlvYTDdfdk-ZZfRD8neQ-kU3pd3K9B8hcQL2xRgv7Br7D0TGNwLBc_wkHlthqVanO1LRvoYal5wFEaqEjKBaX77_LT7HIuwsFUMyTpexsmuXNEXNK-ZiB0WsRowwxVFsQ4CFkg1DO3rT4FIs4ma-F-a5JTHDe91BCdAnT07HmB30euXZ5CZHIhebJaUPa2a9bT1KMBj2Jd_1ANmKbkbMwmKqUS-jYGeOAEyIP5zoLZGKTlceXKbkS5Axl-CLXNcUrgDmJyEjV6PQOuwIo7CIf31Dtk7yI-x18atNPDd1y1S_BhL-Wkb-zedcq0C_BmFMlcjgkMN5ndE7qmbzvFKUPxJKAqLQmRV6AFPq0vslovYjW1xfKLA1rN9S8FDvAZokGH4coSjoY8OVlokC_GSV1dHQ2J88HDHxp1E5sgGfkINoClrCEQw7MB1FC8v02A_UDWTToyP2mH3hBDUAwmALkS9f7LbJqquR648_LUsogOfZg-ETKlJAphIl5nPCOOhsiZH0GOn0byROJJYUQeJdCrwzX2oDqSKCorXNRtnWaT1CkshptHOoWRMXxcMdmjbI8sy3aJjaEV6aoibMb6izzridH0EihGHj8ETqCcCioYcMerP_d5O9EtbWU-gB1VDO6klegynutqhKAyNEU26juvAAYB7IwEHEruW1yYmWgynov3HGPOWtfRaam9EbpyB5ozSCy319K2NSP7IJcakJLJJxH01MoQGXAyd9TtNYoqsPj9btVNfJmwpJUVM-Ih1Oj__nerTzJb3aksBRU6MtmLPVb5qZTlCp6s_VwKSgRp8dEtUfF2-pOA7Irz1KNo_-_0I9s3B4Fio5hznffQvkn6QylRAO21MVEWv4c64p_hlyVLD5uXyyoQ5WoXJKOUzFkTutYSbIPSBwFcmC7xXzzjQe3W3q66g-ZqgF_m80]--></g></svg>